<?xml version="1.0" standalone="no"?><!DOCTYPE svg PUBLIC "-//W3C//DTD SVG 1.1//EN" "http://www.w3.org/Graphics/SVG/1.1/DTD/svg11.dtd"><svg class="icon" width="200px" height="200.00px" viewBox="0 0 1024 1024" version="1.1" xmlns="http://www.w3.org/2000/svg"><path fill="#333333" d="M466.773333 576l-56.32 56.32a159.146667 159.146667 0 0 0-308.906666 0L45.226667 576 0 621.226667l73.386667 73.386666-9.386667 9.386667V768H0v64h64v3.413333c3.285333 20.864 9.130667 41.216 17.493333 60.586667L0 978.773333 45.226667 1024l70.4-70.4A183.808 183.808 0 0 0 256 1024a183.893333 183.893333 0 0 0 140.373333-70.4L466.773333 1024 512 978.773333 430.506667 896c8.448-19.797333 14.336-40.576 17.493333-61.866667v-4.266666H512V768h-64v-64l-9.386667-9.386667L512 621.226667l-45.226667-45.226667zM256 576a96 96 0 0 1 96 96h-192A96 96 0 0 1 256 576z m128 256a142.08 142.08 0 0 1-128 128 142.08 142.08 0 0 1-128-128v-96h256v96z m629.76-422.4v53.76L576 741.12V665.6l362.666667-229.12L384 85.333333v403.626667a216.32 216.32 0 0 0-64-30.72V26.88L368.64 0l645.12 409.6z" /></svg>