<?xml version="1.0" standalone="no"?><!DOCTYPE svg PUBLIC "-//W3C//DTD SVG 1.1//EN" "http://www.w3.org/Graphics/SVG/1.1/DTD/svg11.dtd"><svg class="icon" width="200px" height="200.00px" viewBox="0 0 1024 1024" version="1.1" xmlns="http://www.w3.org/2000/svg"><path fill="#333333" d="M506.465616 1019.676437c-276.53819 0-501.510101-225.0073-501.510101-501.580879S229.926415 16.514678 506.465616 16.514678c276.568524 0 501.580879 225.0073 501.580879 501.580879 0 130.807005-49.545044 253.512889-139.869703 347.387603l0.101112 0.284126-11.947433 11.637019c0 0-0.030334 0.030334-0.040445 0.040445l-29.014184 28.251797-0.569262-1.609708C736.800525 978.892776 624.513256 1019.676437 506.465616 1019.676437zM196.86976 843.731875c80.662365 76.761451 189.719095 123.929344 309.595857 123.929344 111.993033 0 218.185251-40.94544 300.950752-115.675544-39.32562-87.143665-151.694791-190.333858-231.777782-190.333858L437.292646 661.651816C351.143926 661.652827 235.158978 760.322288 196.86976 843.731875zM437.292646 609.63862l138.34594 0c99.060765 0 217.849558 103.576442 270.422916 203.002223 71.184095-81.7291 109.970786-184.964793 109.970786-294.545286 0-247.890032-201.67664-449.566672-449.566672-449.566672-247.849588 0-449.495894 201.67664-449.495894 449.566672 0 108.162898 38.381231 207.522955 102.250859 285.173184C212.300513 708.414249 335.712162 609.63862 437.292646 609.63862zM506.465616 591.478845c-48.173961 0-93.49352-18.798805-127.628033-52.933318-34.083957-33.997-52.857484-79.28117-52.857484-127.480409 0-48.12846 18.763416-93.448019 52.82715-127.607811 34.072834-34.062723 79.402505-52.811983 127.658367-52.811983 48.336751 0 93.676533 18.753305 127.648255 52.811983 34.104179 34.109235 52.897929 79.432839 52.897929 127.607811 0 48.244739-18.803861 93.533965-52.958596 127.52591C600.050137 572.674984 554.720467 591.478845 506.465616 591.478845zM506.465616 282.660542c-34.368082 0-66.633028 13.338739-90.852466 37.558177-24.249771 24.310439-37.618844 56.585496-37.618844 90.84741 0 34.286181 13.34885 66.49046 37.598622 90.684619 24.330661 24.325605 56.595607 37.714901 90.872688 37.714901 34.337749 0 66.592583-13.379184 90.831232-37.674456 24.330661-24.224493 37.699734-56.417649 37.699734-90.725064 0-34.281126-13.379184-66.547083-37.679511-90.852466C573.149201 295.98917 540.884255 282.660542 506.465616 282.660542z" /></svg>