<?xml version="1.0" standalone="no"?><!DOCTYPE svg PUBLIC "-//W3C//DTD SVG 1.1//EN" "http://www.w3.org/Graphics/SVG/1.1/DTD/svg11.dtd"><svg class="icon" width="200px" height="199.61px" viewBox="0 0 1026 1024" version="1.1" xmlns="http://www.w3.org/2000/svg"><path fill="#333333" d="M869.114927 767.661823l-60.195508-136.285337v-194.451783c0-128.169089-82.177015-244.501982-200.53897-290.832233-4.058124-56.137384-52.07926-100.100396-110.245707-100.100396-58.166446 0-104.15852 43.963012-110.245706 100.100396-120.391017 45.992074-200.53897 162.324967-200.53897 290.832233v194.451783l-60.195509 136.285337c-8.116248 17.923382-6.087186 38.214003 4.058125 54.108322 10.14531 15.89432 28.068692 26.03963 48.021136 26.03963h637.463672c19.952444 0 38.214003-10.14531 48.021136-26.03963 10.483487-15.89432 12.51255-38.214003 4.396301-54.108322z m-685.484808 19.952444l64.253633-144.401585v-206.626156c0-110.245707 74.060766-208.655218 180.586525-240.443858l24.010568-8.116248-4.058124-26.03963v-6.087186c0-28.068692 21.981506-50.050198 50.050198-50.050198s50.050198 21.981506 50.050199 50.050198v8.116248l-4.058125 26.03963 24.010568 8.116249c106.187583 32.126816 180.586526 130.198151 180.586526 240.443857V645.241744l64.253633 144.401585h-629.685601v-2.029062z m314.8428 190.393659c56.137384 0 100.100396-43.963012 100.100397-100.100396h-200.53897c0 56.137384 44.301189 100.100396 100.438573 100.100396z m0 0" /></svg>