<?xml version="1.0" standalone="no"?><!DOCTYPE svg PUBLIC "-//W3C//DTD SVG 1.1//EN" "http://www.w3.org/Graphics/SVG/1.1/DTD/svg11.dtd"><svg class="icon" width="200px" height="200.00px" viewBox="0 0 1024 1024" version="1.1" xmlns="http://www.w3.org/2000/svg"><path fill="#333333" d="M953.40978 762.279207l-80.272231-157.239184c-0.164752-0.303922-0.441045-0.49528-0.607844-0.799202-0.741897-1.376347-1.845021-2.450818-2.862187-3.689019-1.24127-1.543146-2.400676-3.086291-3.886517-4.298909-1.099031-0.907673-2.366907-1.486864-3.606131-2.203178-1.874697-1.100054-3.719718-2.093684-5.78782-2.753717-0.550539-0.192382-0.907673-0.576121-1.459235-0.688685-0.961908-0.248663-1.90028 0-2.892887-0.138146-1.86958-0.277316-3.743254-0.468674-5.700839-0.330528-1.899256 0.165776-3.746324 0.496304-5.536087 0.992607-0.771573 0.24764-1.598404 0.164752-2.313695 0.440022l-158.00871 59.446927c-14.491039 5.454222-21.818935 21.706371-16.447601 36.279275 5.399987 14.598486 21.572318 21.98164 36.004005 16.555048l103.165638-38.811957c-51.570539 121.233132-168.341033 201.916732-300.374138 201.916732-149.332097 0-279.93155-103.960747-317.506331-252.852822-3.830235-15.09479-19.088754-24.323988-34.019815-20.35663-14.986319 3.828188-24.023136 19.200294-20.221554 34.295084 43.938722 173.878143 196.797132 295.332309 371.747699 295.332309 153.794735 0 289.766546-93.246731 350.591867-233.544057l50.190099 98.287537c4.957919 9.724479 14.764262 15.288195 24.90318 15.288195 4.295839 0 8.729825-0.99056 12.780071-3.140527C955.091072 793.158495 960.489012 776.133749 953.40978 762.279207zM137.771295 432.733679c0.357134 0.661056 0.852414 1.213641 1.240247 1.846044 1.375324 2.231831 2.945075 4.187369 4.76349 5.894244 0.718361 0.661056 1.407046 1.213641 2.149966 1.818415 2.451842 1.847068 5.097088 3.333932 7.988951 4.297886 0.220011 0.082888 0.357134 0.249687 0.577145 0.358157 0.056282 0 0.138146 0 0.193405 0 2.563382 0.772596 5.205559 1.212618 7.907087 1.212618l0 0c0.025583 0 0.025583 0 0.055259 0 2.422166 0 4.900613-0.330528 7.381108-1.020236l159.387104-44.350091c14.902408-4.131087 23.635303-19.668968 19.528775-34.681894-4.102435-14.985296-19.528775-23.882943-34.404578-19.668968l-105.752556 29.420053c54.597479-114.264417 167.07111-187.897438 294.009174-187.897438 144.455019 0 270.345218 95.505167 313.288263 237.675144 4.519943 14.931061 20.139689 23.249517 34.933627 18.786878 14.762215-4.544503 23.083741-20.301372 18.593474-35.20378-50.16554-166.080549-197.59531-277.674137-366.815363-277.674137-147.377582 0-278.060947 84.569094-342.520027 215.995379l-45.839001-96.964402c-6.639211-14.105253-23.38664-20.054755-37.270858-13.33368-13.96506 6.667863-19.862373 23.526833-13.250792 37.57478l73.385381 155.254993C137.46942 432.321286 137.659755 432.485015 137.771295 432.733679z" /></svg>