<?xml version="1.0" standalone="no"?><!DOCTYPE svg PUBLIC "-//W3C//DTD SVG 1.1//EN" "http://www.w3.org/Graphics/SVG/1.1/DTD/svg11.dtd"><svg class="icon" width="200px" height="200.00px" viewBox="0 0 1024 1024" version="1.1" xmlns="http://www.w3.org/2000/svg"><path fill="#333333" d="M608 112a304 304 0 0 0-240.128 490.496l-253.568 253.632a8 8 0 0 0 0 11.264l42.24 42.304a8 8 0 0 0 11.328 0l253.632-253.568A304 304 0 1 0 608 112z m161.216 465.216A226.24 226.24 0 0 1 608 643.968c-60.928 0-118.208-23.68-161.216-66.752A226.24 226.24 0 0 1 380.032 416c0-60.928 23.68-118.208 66.752-161.216A226.24 226.24 0 0 1 608 188.032c60.928 0 118.208 23.68 161.216 66.752A226.24 226.24 0 0 1 835.968 416c0 60.928-23.68 118.208-66.752 161.216z" /></svg>